# xmcd
#
# Track frame offsets:
#	150
#	14972
#	24136
#	35758
#	49765
#	71298
#	86313
#	99043
#	114899
#	129398
#	143638
#	161007
#
# Disc length: 2339 seconds
#
# Revision: 0
# Processed by: cddbd v1.5.2PL0 Copyright (c) Steve Scherf et al.
# Submitted via: EasyCDDAExtractor 16.0.6.1
#
DISCID=8c09210c
DTITLE=Συλλογικός δίσκος - Η Θεσσαλονίκη στα ρεμπέτικα 2
DYEAR=1998
DGENRE=Ρεμπέτικη
TTITLE0=Μαριώ - Κοντραμπατζήδες [Κώστα Ρούκουνα]
TTITLE1=Μαριώ - Όμορφη Σαλονικιά μου [Δημήτρη Γκόγκου (Μπαγιαντέρα)]
TTITLE2=Μαριώ - Θεσσαλονίκη ξακουσμένη [Βασίλη Τσιτσάνη]
TTITLE3=Μαριώ-Κιουπρούλης Στέφανος ή Χοντρονάκος - Μάζεψε τα πράγματά σου [Πρό
TTITLE3=δρομου Τσαουσάκη-Λεον. Μπουρνέλη]
TTITLE4=Μαριώ-Κιουπρούλης Στέφανος ή Χοντρονάκος - Κάτι θα ήπιε ο Θεός [Στέφαν
TTITLE4=ου Κιουπρούλη (Νάκου)]
TTITLE5=Μαριώ - Θεσσαλονίκη με τα καλά παιδιά σου [Στέλιου Καζαντζίδη-Γ. Καραθ
TTITLE5=ανάση]
TTITLE6=Μαριώ - Η Στέλλα η Σαλονικιά [Σπύρου Ζαγοραίου]
TTITLE7=Μαριώ-Μητρέντζης Χρήστος - Λιτανεία του μάγκα [Βασίλη Τσιτσάνη]
TTITLE8=Μαριώ - Μάγισσα Θεσσαλονίκη [Πάνου Γαβαλά-Πάνου Γαβαλά/Φώτη Ζησούλη]
TTITLE9=Μαριώ - Κάποια Θεσσαλονικιά [Μπάμπη Μπακάλη-Στέλιου Παπαδάκου]
TTITLE10=Μαριώ-Κιουπρούλης Στέφανος ή Χοντρονάκος - Ο μάγκας ξεχωρίζει [Στέφαν
TTITLE10=ου Κιουπρούλη (Νάκου)]
TTITLE11=Χορωδία - Στης Σαλονίκης τα στενά [Βασίλη Τσιτσάνη]
EXTD=
EXTT0=
EXTT1=
EXTT2=
EXTT3=
EXTT4=
EXTT5=
EXTT6=
EXTT7=
EXTT8=
EXTT9=
EXTT10=
EXTT11=
PLAYORDER=
